# xmcd
#
# Track frame offsets:
#	150
#	15466
#	44418
#	61431
#	79255
#	92910
#	112937
#	132331
#	150861
#	169255
#	188724
#	208713
#	226635
#	243462
#	257414
#	276477
#	300116
#
# Disc length: 4243 seconds
#
# Revision: 0
# Processed by: cddbd v1.4PL0 Copyright (c) Steve Scherf et al.
# Submitted via: MusicWizard 6.0.0
#
DISCID=d4109111
DTITLE=Various Artist - Lovesongs - Slow Music Vol. 2
DYEAR=1900
DGENRE=Blues
TTITLE0=santana - black magic woman
TTITLE1=eagles - Hotel California
TTITLE2=nazareth - love hurts
TTITLE3=gary moore - i still got the blues
TTITLE4=simon and garfunkel - the sound of silence
TTITLE5=The Rolling Stones - angie
TTITLE6=chris the burg - borderline
TTITLE7=Diana Warwick - mr. heartbreaker
TTITLE8=barbara streisand and bee gees - guilty
TTITLE9=styx - babe
TTITLE10=whitesnake - is this love
TTITLE11=smokie - lay back in the arms
TTITLE12=doctor hook - sylvias mother
TTITLE13=amerika - the last unicorn
TTITLE14=foreigner - waiting fo a girl like you
TTITLE15=spandau ballet - true
TTITLE16=marillion - kayleight
EXTD=
EXTT0=
EXTT1=
EXTT2=
EXTT3=
EXTT4=
EXTT5=
EXTT6=
EXTT7=
EXTT8=
EXTT9=
EXTT10=
EXTT11=
EXTT12=
EXTT13=
EXTT14=
EXTT15=
EXTT16=
PLAYORDER=
